<svg xmlns="http://www.w3.org/2000/svg" viewBox="0 0 480.164 480.164">
    <path d="M350.72 264.082H352c-32 48-28.72 52.32-36.48 89.68-2.64 12.88-13.6 22.32-26.8 22.32h-97.44c-13.2 0-24.16-9.44-26.8-22.32-7.76-37.36-4.48-41.68-36.48-89.68h1.28c-25.6-27.12-41.28-63.76-41.28-104 0-83.92 68.08-152 152-152s152 68.08 152 152c0 40.24-15.68 76.88-41.28 104z" fill="#cff2f8"/>
    <path d="M224 240.082v-184h-24c-8.837 0-16 7.163-16 16v8h-16c-8.837 0-16 7.163-16 16v32h-8c-8.837 0-16 7.163-16 16v56h32v24c0 8.837 7.163 16 16 16h48z" fill="#f88756"/>
    <path d="M256 240.082v-184h24c8.837 0 16 7.163 16 16v8h16c8.837 0 16 7.163 16 16v32h8c8.837 0 16 7.163 16 16v40h-32v40c0 8.837-7.163 16-16 16h-48z" fill="#3f708d"/>
    <g fill="#2e5166">
        <path d="M296 200.082h-16v-16c0-4.418 3.578-8 8-8h32v16h-24v8zM296 136.082h-16v-16h-24v-16h32c4.422 0 8 3.582 8 8v24z"/>
    </g>
    <g fill="#e15d2d">
        <path d="M168 200.082h-16v-32c0-4.418 3.578-8 8-8h24v16h-16v24zM176 80.082h16v24h-16z"/>
    </g>
    <g fill="#ffbe00">
        <path d="M192 376.082h96c8.837 0 16 7.163 16 16s-7.163 16-16 16h-96c-8.837 0-16-7.163-16-16s7.163-16 16-16zM200 408.082h80c8.837 0 16 7.163 16 16s-7.163 16-16 16h-80c-8.837 0-16-7.163-16-16s7.163-16 16-16zM208 440.082h64c8.837 0 16 7.163 16 16s-7.163 16-16 16h-64c-8.837 0-16-7.163-16-16s7.163-16 16-16z"/>
    </g>
    <path fill="#e15d2d" d="M223.866 374.69l-15.75 2.78-24.002-136.005 15.75-2.78z"/>
    <path fill="#2e5166" d="M295.87 241.47l-24.017 136.005-15.749-2.781 24.016-136.005z"/>
    <g fill="#e7343a">
        <path d="M448 288.082a8.008 8.008 0 0 1-7.719-5.895l-18.492-67.801-14.633 29.273a8.003 8.003 0 0 1-7.156 4.422h-32v-16h27.055l21.789-43.578c1.484-2.961 4.586-4.742 7.945-4.383a8.008 8.008 0 0 1 6.93 5.855l17.719 64.973 7.133-17.84c1.242-3.09 4.453-4.926 7.594-5.027l16 .32-.328 16-10.461-.211-13.945 34.863a8.005 8.005 0 0 1-7.431 5.029zM80 288.082a8.008 8.008 0 0 1-7.719-5.895l-18.492-67.801-14.633 29.274A8.003 8.003 0 0 1 32 248.082H0v-16h27.055l21.789-43.578c1.484-2.961 4.555-4.742 7.945-4.383a8.008 8.008 0 0 1 6.93 5.855l17.719 64.973 7.133-17.84c1.242-3.09 4.375-4.926 7.594-5.027l16 .32-.328 16-10.461-.211-13.946 34.864a8.004 8.004 0 0 1-7.43 5.027z"/>
    </g>
    <path d="M464.164 232.082c-3.141.102-6.352 1.938-7.594 5.027l-7.133 17.84-17.719-64.973a8.008 8.008 0 0 0-6.93-5.855c-3.359-.359-6.461 1.422-7.945 4.383l-21.789 43.578h-12.249c11.185-22.096 17.194-46.638 17.194-72 0-88.223-71.773-160-160-160s-160 71.777-160 160c0 25.371 6.015 49.92 17.206 72.021l-1.042-.021c-3.219.102-6.352 1.938-7.594 5.027l-7.133 17.84-17.719-64.973a8.008 8.008 0 0 0-6.93-5.855c-3.391-.359-6.461 1.422-7.945 4.383l-21.789 43.578H0v16h32a8.003 8.003 0 0 0 7.156-4.422l14.633-29.273 18.492 67.801A8.008 8.008 0 0 0 80 288.083a8.004 8.004 0 0 0 7.43-5.027l13.945-34.863 5.367.108c4.106 6.168 8.52 12.16 13.508 17.767a7.98 7.98 0 0 0 1.094 2.453c26.258 39.383 27.789 47.543 32.344 71.77.844 4.449 1.773 9.391 2.953 15.078 2.036 9.923 7.845 18.002 15.669 23.056-2.702 3.883-4.31 8.58-4.31 13.659 0 8.523 4.497 15.975 11.211 20.233-1.985 3.492-3.211 7.471-3.211 11.767 0 8.523 4.497 15.975 11.211 20.233-1.985 3.492-3.211 7.471-3.211 11.767 0 13.234 10.766 24 24 24h64c13.234 0 24-10.766 24-24 0-4.296-1.226-8.274-3.211-11.767 6.714-4.259 11.211-11.71 11.211-20.233 0-4.296-1.226-8.274-3.211-11.767 6.714-4.259 11.211-11.71 11.211-20.233 0-5.079-1.607-9.775-4.309-13.658 7.824-5.052 13.632-13.125 15.668-23.037 1.18-5.707 2.109-10.648 2.953-15.098 4.555-24.227 6.086-32.387 32.344-71.77a7.98 7.98 0 0 0 1.094-2.453c5.047-5.673 9.51-11.737 13.654-17.984H400a8.003 8.003 0 0 0 7.156-4.422l14.633-29.273 18.492 67.801a8.008 8.008 0 0 0 7.719 5.895 8.004 8.004 0 0 0 7.43-5.027l13.945-34.863 10.461.211.328-16-16-.324zM288 384.082c4.414 0 8 3.59 8 8s-3.586 8-8 8h-96c-4.414 0-8-3.59-8-8s3.586-8 8-8h96zm0 40c0 4.41-3.586 8-8 8h-80c-4.414 0-8-3.59-8-8s3.586-8 8-8h80c4.414 0 8 3.59 8 8zm-16 40h-64c-4.414 0-8-3.59-8-8s3.586-8 8-8h64c4.414 0 8 3.59 8 8s-3.586 8-8 8zm72.898-205.492a8.035 8.035 0 0 0-2.164 4.992c-25.586 38.84-27.563 49.379-32.148 73.75-.82 4.359-1.734 9.207-2.898 14.824-1.922 9.375-9.727 15.926-18.969 15.926h-15.187l21.176-120H304c13.234 0 24-10.766 24-24v-32h24c4.422 0 8-3.582 8-8v-40c0-13.234-10.766-24-24-24v-24c0-13.234-10.766-24-24-24h-8c0-13.234-10.766-24-24-24h-24c-4.422 0-8 3.582-8 8v184c0 4.418 3.578 8 8 8h22.468l-21.176 120h-34.583l-21.176-120H224c4.422 0 8-3.582 8-8v-184c0-4.418-3.578-8-8-8h-24c-13.234 0-24 10.766-24 24h-8c-13.234 0-24 10.766-24 24v24c-13.234 0-24 10.766-24 24v56c0 4.418 3.578 8 8 8h24v16c0 13.234 10.766 24 24 24h9.292l21.176 120h-15.187c-9.242 0-17.047-6.551-18.969-15.945-1.164-5.598-2.078-10.445-2.898-14.805-4.586-24.371-6.563-34.91-32.148-73.75a8.035 8.035 0 0 0-2.164-4.992C109.883 231.879 96 196.898 96 160.082c0-79.402 64.602-144 144-144s144 64.598 144 144c0 36.816-13.883 71.797-39.102 98.508zM264 120.082h16v16h16v-24c0-4.418-3.578-8-8-8h-24v-40h16c4.414 0 8 3.59 8 8v8c0 4.418 3.578 8 8 8h16c4.414 0 8 3.59 8 8v32c0 4.418 3.578 8 8 8h8c4.414 0 8 3.59 8 8v32h-56c-4.422 0-8 3.582-8 8v16h16v-8h16v32c0 4.41-3.586 8-8 8h-40v-112zm-96 80v-24h16v-16h-24c-4.422 0-8 3.582-8 8v24h-16v-48c0-4.41 3.586-8 8-8h8c4.422 0 8-3.582 8-8v-32c0-4.41 3.586-8 8-8h8v16h16v-32c0-4.41 3.586-8 8-8h16v168h-40c-4.414 0-8-3.59-8-8v-24z"/>
</svg>
