<svg xmlns="http://www.w3.org/2000/svg" viewBox="0 0 64 64" width="512" height="512">
    <path fill="#c7b299" d="M14 54h4v4h-4z"/>
    <path fill="#998675" d="M53 38h6v8h-6z"/>
    <path fill="#c7b299" d="M53 38h3v8h-3z"/>
    <path d="M23 42h4.469A2.53 2.53 0 0 0 30 39.469c0-.908-.487-1.747-1.275-2.198L23 34v8z" fill="#862b87"/>
    <path d="M30 39.469c0-.908-.487-1.747-1.275-2.198L26 35.714V42h1.469A2.53 2.53 0 0 0 30 39.469z" fill="#74489d"/>
    <path d="M23 26v21a7 7 0 1 1-14 0V26.02L23 26z" fill="#ef4f76"/>
    <path d="M12 26.02V47a7 7 0 0 0 5.5 6.835A7 7 0 0 0 23 47V26.004l-11 .016z" fill="#c356a0"/>
    <path d="M48 25V5L14 2c-2.039 0-3.936.52-5.718 1.51l-.11.061A12 12 0 0 0 2 14.061v.878c0 4.358 2.363 8.373 6.172 10.49l.11.061C10.064 26.48 11.961 27 14 27l34-2z" fill="#d4468f"/>
    <path d="M12.282 3.51l-.109.061A12 12 0 0 0 6 14.061v.878c0 4.358 2.363 8.373 6.172 10.49l.109.061a11.793 11.793 0 0 0 4.019 1.375L48 25V5L16.064 2.182a11.797 11.797 0 0 0-3.782 1.328z" fill="#ef4f76"/>
    <path fill="none" d="M35 45z"/>
    <path d="M18 59h-4a1 1 0 0 1-1-1v-4h2v3h2v-3h2v4a1 1 0 0 1-1 1z"/>
    <path d="M53 63H16a1 1 0 0 1-1-1v-4h2v3h36c2.206 0 4-1.794 4-4s-1.794-4-4-4h-9c-3.309 0-6-2.691-6-6s2.691-6 6-6h9v2h-9c-2.206 0-4 1.794-4 4s1.794 4 4 4h9c3.309 0 6 2.691 6 6s-2.691 6-6 6z"/>
    <path d="M59 47h-6a1 1 0 0 1-1-1v-8a1 1 0 0 1 1-1h6a1 1 0 0 1 1 1v8a1 1 0 0 1-1 1zm-5-2h4v-6h-4v6z"/>
    <path d="M59 37h4v2h-4zM59 45h4v2h-4zM27.469 43H23v-2h4.469a1.533 1.533 0 0 0 .76-2.861l-5.725-3.271.992-1.736 5.725 3.271A3.54 3.54 0 0 1 31 39.469 3.535 3.535 0 0 1 27.469 43zM56 14a3.393 3.393 0 0 1-2.414-1L53 12.414A1.406 1.406 0 0 0 52 12h-1v-2h1c.911 0 1.769.355 2.414 1l.586.586c.535.534 1.465.535 2 0l.586-.586c.646-.645 1.503-1 2.414-1h1v2h-1c-.378 0-.732.147-1 .415l-.586.585c-.645.645-1.503 1-2.414 1zM56 19a3.393 3.393 0 0 1-2.414-1L53 17.414A1.406 1.406 0 0 0 52 17h-1v-2h1c.911 0 1.769.355 2.414 1l.586.586c.535.534 1.465.535 2 0l.586-.586c.646-.645 1.503-1 2.414-1h1v2h-1c-.378 0-.732.147-1 .415l-.586.585c-.645.645-1.503 1-2.414 1zM43 5h2v20h-2z"/>
    <path d="M14.048 27.998c-2.218 0-4.302-.55-6.252-1.634l-.106-.058A13.011 13.011 0 0 1 1 14.939v-.878C1 9.343 3.562 4.988 7.687 2.697l.114-.063C9.749 1.55 11.837 1 14 1l34.088 3.004A1 1 0 0 1 49 5v20a1 1 0 0 1-.941.998l-34 2h-.011zm-.136-25.002c-1.757.004-3.469.457-5.143 1.388l-.116.064A11.003 11.003 0 0 0 3 14.061v.878c0 3.993 2.168 7.677 5.657 9.616l.106.058C10.443 25.547 12.155 26 14 26l33-1.943V5.916l-33.088-2.92z"/>
    <path d="M11 2h2v25h-2z"/>
    <path d="M16 55c-4.411 0-8-3.589-8-8V26.02h2V47c0 3.309 2.691 6 6 6s6-2.691 6-6V26h2v21c0 4.411-3.589 8-8 8z"/>
    <path d="M9 47h14v2H9z"/>
</svg>
