<?xml version="1.0" encoding="utf-8"?>
<!-- Generator: Adobe Illustrator 16.0.0, SVG Export Plug-In . SVG Version: 6.00 Build 0)  -->
<!DOCTYPE svg PUBLIC "-//W3C//DTD SVG 1.1//EN" "http://www.w3.org/Graphics/SVG/1.1/DTD/svg11.dtd" [
	<!ENTITY ns_extend "http://ns.adobe.com/Extensibility/1.0/">
	<!ENTITY ns_ai "http://ns.adobe.com/AdobeIllustrator/10.0/">
	<!ENTITY ns_graphs "http://ns.adobe.com/Graphs/1.0/">
	<!ENTITY ns_vars "http://ns.adobe.com/Variables/1.0/">
	<!ENTITY ns_imrep "http://ns.adobe.com/ImageReplacement/1.0/">
	<!ENTITY ns_sfw "http://ns.adobe.com/SaveForWeb/1.0/">
	<!ENTITY ns_custom "http://ns.adobe.com/GenericCustomNamespace/1.0/">
	<!ENTITY ns_adobe_xpath "http://ns.adobe.com/XPath/1.0/">
]>
<svg version="1.1" id="Layer_1" xmlns:x="&ns_extend;" xmlns:i="&ns_ai;" xmlns:graph="&ns_graphs;"
	 xmlns="http://www.w3.org/2000/svg" xmlns:xlink="http://www.w3.org/1999/xlink" x="0px" y="0px" width="3063.6px"
	 height="460.827px" viewBox="0 0 3063.6 460.827" enable-background="new 0 0 3063.6 460.827" xml:space="preserve">
<metadata>
	<sfw  xmlns="&ns_sfw;">
		<slices></slices>
		<sliceSourceBounds  width="3063.6" height="460.827" y="-709.375" x="-807.259" bottomLeftOrigin="true"></sliceSourceBounds>
	</sfw>
</metadata>
<g>
	<path fill="#1A1A1A" d="M44.742,29.035c0.404-3.777,1.892-6.911,4.48-9.395c2.58-2.491,5.856-3.739,9.843-3.739h74.571
		c6.962,0,11.541,3.785,13.732,11.339L252.68,320.795c17.696-49.32,35.445-98.25,53.247-146.77
		c17.793-48.535,35.453-97.45,52.955-146.785c2.782-7.555,7.353-11.339,13.725-11.339h74.877c3.972,0,7.211,1.302,9.694,3.889
		c2.491,2.581,3.83,5.662,4.023,9.245c7.36,69.806,14.817,139.321,22.379,208.528c7.555,69.215,15.116,138.633,22.678,208.229v0.897
		c0,8.161-4.383,12.229-13.127,12.229h-57.876c-8.953,0-13.628-4.367-14.024-13.127l-30.426-282.216l-99.342,274.468
		c-1.003,2.78-2.588,5.361-4.78,7.748c-2.191,2.387-4.473,3.575-6.859,3.575h-53.695c-2.588,0-4.982-1.137-7.158-3.419
		c-2.191-2.288-3.784-4.929-4.78-7.904c-16.313-45.947-32.707-91.595-49.214-136.935c-16.522-45.348-33.119-91.093-49.829-137.241
		L84.72,445.792c0,8.76-4.578,13.127-13.732,13.127H13.126C4.368,458.919,0,454.552,0,445.792L44.742,29.035z"/>
	<path fill="#1A1A1A" d="M582.922,29.035c0-3.583,1.084-6.664,3.268-9.245c2.177-2.587,5.453-3.889,9.814-3.889h59.155
		c3.381,0,6.545,1.197,9.522,3.59c2.969,2.372,4.458,5.565,4.458,9.544v416.757c0,8.76-4.66,13.127-13.979,13.127h-59.155
		c-8.721,0-13.082-4.367-13.082-13.127V29.035z"/>
	<path fill="#1A1A1A" d="M766.087,29.035c0-3.583,1.151-6.664,3.425-9.245c2.289-2.587,5.527-3.889,9.701-3.889h60.569
		c1.384,0,2.933,0.299,4.623,0.905c1.683,0.591,3.223,1.489,4.622,2.685c1.384,1.189,2.58,2.581,3.575,4.174
		c1.003,1.593,1.496,3.381,1.496,5.37v177.211l167.361-181.093c3.972-6.164,8.347-9.252,13.119-9.252h85.334
		c5.355,0,8.048,1.197,8.048,3.59c0,1.593-1.189,3.673-3.583,6.261l-157.51,183.472l183.771,237.766
		c2.977,3.979,4.473,6.858,4.473,8.652c0,2.185-2.094,3.277-6.268,3.277h-90.689c-4.771,0-9.147-3.082-13.126-9.253L904.809,270.975
		l-50.711,52.505v122.313c0,8.76-4.771,13.127-14.316,13.127h-60.569c-8.75,0-13.126-4.367-13.126-13.127V29.035z"/>
	<path fill="#1A1A1A" d="M1213.278,29.926c0-9.35,4.375-14.024,13.126-14.024h182.574c20.083,0,38.886,3.785,56.389,11.339
		c17.494,7.561,32.768,17.801,45.789,30.725c13.029,12.932,23.269,28.146,30.733,45.64c7.457,17.517,11.181,36.104,11.181,55.789
		c0,13.732-1.892,26.852-5.668,39.387c-3.785,12.528-9.051,24.166-15.812,34.899c-6.762,10.741-14.817,20.441-24.159,29.087
		c-9.349,8.646-19.701,15.969-31.032,21.93l77.569,153.046c0.389,1.98,1.092,3.97,2.087,5.959c0.995,1.983,1.488,4.085,1.488,6.261
		c0,5.978-3.478,8.954-10.434,8.954h-69.215c-7.166,0-11.93-3.68-14.323-11.04l-72.192-143.195c-3.187,0-6.612,0.052-10.284,0.149
		c-3.695,0.105-8.759,0.157-15.221,0.157c-6.469,0-14.914,0-25.355,0c-10.449,0-23.919,0-40.426,0v141.101
		c0,8.557-4.57,12.828-13.725,12.828h-59.963c-3.979,0-7.158-1.047-9.543-3.126c-2.393-2.095-3.583-5.318-3.583-9.702V29.926z
		 M1464.769,159.844c0-8.527-1.594-16.821-4.771-24.847c-3.187-8.033-7.66-15.236-13.426-21.585
		c-5.767-6.343-12.633-11.503-20.583-15.475c-7.966-3.972-16.612-6.261-25.961-6.851c-6.956-0.194-13.762-0.345-20.426-0.449
		c-6.672-0.097-13.583-0.142-20.741-0.142h-58.766v138.423h78.751c3.979,0,7.719,0,11.19,0c3.478,0,7.21-0.202,11.189-0.605
		c9.349-0.591,17.943-2.768,25.812-6.545c7.846-3.77,14.555-8.773,20.135-15.034c5.564-6.26,9.88-13.403,12.977-21.429
		C1463.228,177.264,1464.769,168.782,1464.769,159.844z"/>
	<path fill="#166788" d="M2162.052,29.926c0-9.35,4.367-14.024,13.127-14.024h182.572c20.092,0,38.879,3.785,56.39,11.339
		c17.495,7.561,32.759,17.801,45.789,30.725c13.028,12.932,23.268,28.146,30.733,45.64c7.456,17.517,11.19,36.104,11.19,55.789
		c0,13.732-1.901,26.852-5.678,39.387c-3.778,12.528-9.05,24.166-15.812,34.899c-6.762,10.741-14.81,20.441-24.16,29.087
		c-9.357,8.646-19.687,15.969-31.024,21.93l77.562,153.046c0.405,1.98,1.093,3.97,2.088,5.959c0.994,1.983,1.487,4.085,1.487,6.261
		c0,5.978-3.477,8.954-10.441,8.954h-69.199c-7.165,0-11.945-3.68-14.329-11.04l-72.193-143.195c-3.187,0-6.611,0.052-10.291,0.149
		c-3.675,0.105-8.76,0.157-15.215,0.157c-6.461,0-14.913,0-25.363,0c-10.434,0-23.911,0-40.419,0v141.101
		c0,8.557-4.57,12.828-13.724,12.828h-59.963c-3.973,0-7.159-1.047-9.538-3.126c-2.392-2.095-3.589-5.318-3.589-9.702V29.926z
		 M2413.541,159.844c0-8.527-1.601-16.821-4.771-24.847c-3.181-8.033-7.666-15.236-13.425-21.585
		c-5.768-6.343-12.634-11.503-20.577-15.475c-7.959-3.972-16.611-6.261-25.963-6.851c-6.962-0.194-13.776-0.345-20.432-0.449
		c-6.672-0.097-13.576-0.142-20.741-0.142h-58.768v138.423h78.761c3.971,0,7.702,0,11.195,0c3.463,0,7.203-0.202,11.182-0.605
		c9.343-0.591,17.943-2.768,25.799-6.545c7.86-3.77,14.568-8.773,20.141-15.034c5.564-6.26,9.889-13.403,12.977-21.429
		C2411.993,177.264,2413.541,168.782,2413.541,159.844z"/>
	<path fill="#166788" d="M2602.084,29.035c0.397-3.777,1.894-6.911,4.475-9.395c2.586-2.491,5.863-3.739,9.841-3.739h74.58
		c6.954,0,11.541,3.785,13.725,11.339l105.318,293.555c17.688-49.32,35.438-98.25,53.247-146.77
		c17.784-48.535,35.443-97.45,52.946-146.785c2.783-7.555,7.359-11.339,13.727-11.339h74.884c3.979,0,7.194,1.302,9.694,3.889
		c2.482,2.581,3.822,5.662,4.021,9.245c7.359,69.806,14.826,139.321,22.379,208.528c7.563,69.215,15.108,138.633,22.679,208.229
		v0.897c0,8.161-4.384,12.229-13.136,12.229h-57.874c-8.946,0-13.62-4.367-14.03-13.127l-30.422-282.216l-99.343,274.468
		c-1,2.78-2.578,5.361-4.771,7.748c-2.191,2.387-4.479,3.575-6.86,3.575h-53.693c-2.59,0-4.981-1.137-7.174-3.419
		c-2.184-2.288-3.778-4.929-4.765-7.904c-16.313-45.947-32.723-91.595-49.222-136.935c-16.517-45.348-33.111-91.093-49.822-137.241
		l-30.427,281.924c0,8.76-4.584,13.127-13.732,13.127h-57.866c-8.751,0-13.127-4.367-13.127-13.127L2602.084,29.035z"/>
	<g>
		<path fill="#166788" d="M2020.862,322.531c-43.695,25.228-101.639,39.117-163.181,39.117s-119.5-13.89-163.181-39.117
			c-16.53-9.544-30.284-20.292-41.1-31.938c-10.052,14.226-15.639,29.724-15.639,45.947c0,68.527,98.655,124.287,219.92,124.287
			c121.258,0,219.91-55.76,219.91-124.287c0-16.23-5.587-31.721-15.64-45.947C2051.13,302.239,2037.384,312.987,2020.862,322.531z"
			/>
		<path fill="#166788" d="M2066.263,185.334c-11.385,13.53-26.591,25.976-45.4,36.844c-5.027,2.902-10.264,5.632-15.655,8.235
			c-2.499,1.197-5.042,2.364-7.601,3.493c-2.587,1.137-5.206,2.244-7.861,3.328c-38.504,15.61-84.188,24.054-132.063,24.054
			c-47.892,0-93.562-8.444-132.073-24.054c-2.663-1.084-5.281-2.191-7.869-3.328c-2.558-1.129-5.093-2.296-7.599-3.493
			c-5.385-2.603-10.621-5.333-15.64-8.235c-18.826-10.868-34.039-23.313-45.408-36.844c-7.315,12.378-11.332,25.572-11.332,39.312
			c0,16.215,5.587,31.72,15.624,45.931c1.257,1.766,2.574,3.5,3.95,5.236c1.301,1.607,2.647,3.201,4.054,4.779
			c36.291,40.494,110.622,68.333,196.292,68.333c85.655,0,159.986-27.839,196.284-68.333c1.414-1.578,2.751-3.171,4.047-4.779
			c1.384-1.736,2.698-3.471,3.939-5.229c10.053-14.219,15.64-29.708,15.64-45.939
			C2077.592,210.906,2073.583,197.705,2066.263,185.334z"/>
		<path fill="#1A1A1A" d="M1857.682,0c-121.265,0-219.92,55.759-219.92,124.287c0,13.732,4.016,26.941,11.332,39.297
			c1.129,1.916,2.34,3.807,3.627,5.677c1.219,1.75,2.491,3.493,3.814,5.206c15.311,19.522,39.23,36.417,69.074,49.126
			c2.805,1.196,5.677,2.371,8.601,3.493c2.984,1.145,6.028,2.251,9.125,3.328c33.344,11.511,72.492,18.16,114.347,18.16
			c41.839,0,80.995-6.649,114.339-18.16c3.097-1.077,6.133-2.184,9.124-3.328c2.918-1.122,5.79-2.296,8.601-3.493
			c29.838-12.708,53.757-29.604,69.06-49.126c1.345-1.713,2.619-3.456,3.83-5.206c1.285-1.87,2.499-3.762,3.628-5.669
			c7.32-12.364,11.329-25.572,11.329-39.305C2077.592,55.759,1978.939,0,1857.682,0z M1972.298,145.88
			c-0.622,1.055-1.288,2.094-1.997,3.126c-0.658,0.95-1.354,1.915-2.097,2.857c-8.414,10.718-21.563,20.007-37.941,26.986
			c-1.564,0.666-3.127,1.301-4.743,1.922c-1.639,0.628-3.306,1.249-5.003,1.84c-18.324,6.313-39.844,9.978-62.835,9.978
			c-22.992,0-44.512-3.665-62.836-9.978c-1.698-0.591-3.373-1.212-5.019-1.84c-1.601-0.621-3.179-1.256-4.72-1.922
			c-16.395-6.979-29.537-16.268-37.958-26.986c-0.726-0.942-1.437-1.908-2.095-2.857c-0.703-1.032-1.376-2.072-1.989-3.126
			c-4.024-6.799-6.238-14.039-6.238-21.593c0-37.659,54.212-68.303,120.854-68.303c66.642,0,120.847,30.644,120.847,68.303
			C1978.528,131.841,1976.32,139.081,1972.298,145.88z"/>
	</g>
</g>
</svg>
