<svg xmlns="http://www.w3.org/2000/svg" width="77" height="90" viewBox="0 0 77 90">
  <g fill="#FFE115">
    <path d="M38.0088525,-5.42596271e-14 C59.0006184,-5.42596271e-14 76.0181397,17.1952683 76.0181397,38.4058537 C76.0181397,59.6168782 38.0088525,89.6136584 38.0088525,89.6136584 C38.0088525,89.6136584 0,59.6168782 0,38.4058537 C0,17.1952683 17.0170864,-5.42596271e-14 38.0088525,-5.42596271e-14 Z M38.008418,13.7146829 C25.2119306,13.7146829 14.8394416,24.1959512 14.8394416,37.1269756 C14.8394416,50.0562439 25.2119306,60.5388295 38.008418,60.5388295 C50.80534,60.5388295 61.1786979,50.0562439 61.1786979,37.1269756 C61.1786979,24.1959512 50.80534,13.7146829 38.008418,13.7146829 Z"/>
    <path d="M38.0075491,26.5644878 C32.2358344,26.5644878 27.5564181,31.2940976 27.5564181,37.1265366 C27.5564181,42.9589756 32.2358344,47.6881463 38.0075491,47.6881463 C43.7801327,47.6881463 48.461287,42.9589756 48.461287,37.1265366 C48.461287,31.2940976 43.7801327,26.5644878 38.0075491,26.5644878"/>
  </g>
</svg>
