<svg xmlns="http://www.w3.org/2000/svg" viewBox="0 0 106 106">
    <defs>
        <style>
            .cls-5{fill:#171c1f}
        </style>
    </defs>
    <g id="Shield">
        <path d="M94.24 15.33C89.89 12 74.07 1 53 1S16.11 12 11.76 15.33A2 2 0 0 0 11 16.9V50c0 18 10.61 31.61 16.93 38.1C37.36 97.78 47.88 103 53 103s15.64-5.22 25.07-14.9C84.39 81.61 95 68 95 50V16.9a2 2 0 0 0-.76-1.57z" fill="#12adb8" id="Fill"/>
        <circle cx="53" cy="49" r="27" fill="#ffc868" id="Yellow"/>
        <path d="M68.71 45.78a1 1 0 0 0 .22-1 1 1 0 0 0-.76-.68L60 42.49A3 3 0 0 1 57.91 41l-4-7.44a1 1 0 0 0-1.74 0l-4 7.44A3 3 0 0 1 46 42.49l-8.21 1.6a1 1 0 0 0-.76.68 1 1 0 0 0 .22 1L43 52a3.07 3.07 0 0 1 .79 2.46l-1 8.41a1 1 0 0 0 1 1.14 1 1 0 0 0 .42-.1l7.58-3.61a2.94 2.94 0 0 1 2.53 0l7.58 3.61a1 1 0 0 0 .42.1 1 1 0 0 0 1-1.14l-1-8.41A3.07 3.07 0 0 1 63 52z" fill="#fff" id="White"/>
        <path d="M42.07 64.09l-.32 2.63a2 2 0 0 0 2 2.29 2 2 0 0 0 .85-.19l7.58-3.61a2 2 0 0 1 1.69 0l7.58 3.61a2 2 0 0 0 .85.19 2 2 0 0 0 2-2.29l-.32-2.63a2 2 0 0 1-1.65.91 2 2 0 0 1-.85-.19l-7.64-3.61a2 2 0 0 0-1.69 0l-7.58 3.61a2 2 0 0 1-.85.19 2 2 0 0 1-1.65-.91zm.19-7.43a2 2 0 0 1 .2.27l.32-2.63a2.05 2.05 0 0 0-.53-1.64l-5-5.43a2 2 0 0 0-.69 3.25zm21.27.27a2 2 0 0 1 .2-.27l5.71-6.18a2 2 0 0 0-.69-3.25l-5 5.43a2.05 2.05 0 0 0-.53 1.64zM53 100c-9.67 0-40-21.16-40-51V17.91 51c0 29.84 30.33 51 40 51s40-21.16 40-51v-2c0 29.84-30.33 51-40 51zm0-19a28 28 0 0 0 28-28c0-.67 0-1.34-.08-2a28 28 0 0 1-55.84 0c0 .66-.08 1.33-.08 2a28 28 0 0 0 28 28z" id="Shadows" opacity=".1"/>
        <path class="cls-5" d="M68.36 43.09l-8.21-1.6a2 2 0 0 1-1.37-1l-4-7.44a2 2 0 0 0-3.49 0l-4 7.44a2 2 0 0 1-1.37 1l-8.21 1.6a2 2 0 0 0-1.08 3.38l5.71 6.18a2.05 2.05 0 0 1 .53 1.64l-1 8.41a2 2 0 0 0 2 2.29 2 2 0 0 0 .85-.19l7.58-3.61a2 2 0 0 1 1.69 0l7.58 3.61a2 2 0 0 0 .85.19 2 2 0 0 0 2-2.29l-1-8.41a2.05 2.05 0 0 1 .53-1.64l5.71-6.18a2 2 0 0 0-1.3-3.38zm-6.08 8.18a4.09 4.09 0 0 0-1.05 3.29l1 8.41-7.58-3.61a3.92 3.92 0 0 0-3.37 0L43.72 63l1-8.41a4.09 4.09 0 0 0-1.05-3.29L38 45.09l8.21-1.6a4 4 0 0 0 2.74-2L53 34l4 7.44a4 4 0 0 0 2.74 2L68 45.09zM53 21a28 28 0 1 0 28 28 28 28 0 0 0-28-28zm0 54a26 26 0 1 1 26-26 26 26 0 0 1-26 26z" id="Inner_Lines" data-name="Inner Lines"/>
        <path class="cls-5" d="M95.46 14.75C90.59 11 74.54 0 53 0S15.41 11 10.54 14.75A4 4 0 0 0 9 17.9V51c0 32 32 55 44 55s44-23 44-55V17.9a4 4 0 0 0-1.54-3.15zM93 51c0 29.84-30.33 51-40 51S13 80.84 13 51V17.91C17.21 14.65 32.57 4 53 4s35.79 10.65 40 13.9z" id="Outline"/>
    </g>
</svg>
