<svg xmlns="http://www.w3.org/2000/svg" width="305" height="90" viewBox="0 0 305 90">
  <g fill="none">
    <path fill="#000" d="M98.1610695,45.3523636 C98.1610695,32.43 108.040134,23.7103636 121.107834,23.7103636 C132.049777,23.7103636 137.551738,30.1085455 140.052629,35.88 L129.173209,40.9609091 C128.11033,37.6990909 124.859171,34.8763636 121.107834,34.8763636 C115.042629,34.8763636 110.978137,39.5181818 110.978137,45.3523636 C110.978137,51.186 115.042629,55.8283636 121.107834,55.8283636 C124.859171,55.8283636 128.11033,53.0050909 129.173209,49.7432727 L140.052629,54.762 C137.61426,60.3447273 132.049777,66.9938182 121.107834,66.9938182 C108.040134,66.9938182 98.1610695,58.212 98.1610695,45.3523636 Z M172.688173,45.2896364 C172.688173,39.6436364 169.437014,35.4409091 162.684064,35.4409091 L156.619403,35.4409091 L156.619403,55.2005455 L162.621542,55.2005455 C168.936836,55.2005455 172.688173,50.5587273 172.688173,45.2896364 Z M143.989358,66.2416364 L143.989358,24.4003636 L162.621542,24.4003636 C175.752308,24.4003636 185.505784,31.9276364 185.505784,45.2896364 C185.505784,58.6505455 175.752308,66.2416364 162.684064,66.2416364 L143.989358,66.2416364 Z M218.016283,66.2416364 L202.635258,45.0381818 L202.635258,66.2416364 L190.005214,66.2416364 L190.005214,24.4003636 L203.010392,24.4003636 L217.516105,44.2232727 L217.516105,24.4003636 L230.14615,24.4003636 L230.14615,66.2416364 L218.016283,66.2416364 Z M241.023396,66.2416364 L254.216684,35.4409091 L234.646123,35.4409091 L234.646123,24.4003636 L268.721854,24.4003636 L268.721854,33.1827273 L254.841364,66.2416364 L241.023396,66.2416364 Z M277.125936,66.2416364 L290.318681,35.4409091 L270.748663,35.4409091 L270.748663,24.4003636 L304.824394,24.4003636 L304.824394,33.1827273 L290.943904,66.2416364 L277.125936,66.2416364 Z"/>
    <g fill="#FFE115">
      <path d="M38.0088525,-5.42596271e-14 C59.0006184,-5.42596271e-14 76.0181397,17.1952683 76.0181397,38.4058537 C76.0181397,59.6168782 38.0088525,89.6136584 38.0088525,89.6136584 C38.0088525,89.6136584 0,59.6168782 0,38.4058537 C0,17.1952683 17.0170864,-5.42596271e-14 38.0088525,-5.42596271e-14 Z M38.008418,13.7146829 C25.2119306,13.7146829 14.8394416,24.1959512 14.8394416,37.1269756 C14.8394416,50.0562439 25.2119306,60.5388295 38.008418,60.5388295 C50.80534,60.5388295 61.1786979,50.0562439 61.1786979,37.1269756 C61.1786979,24.1959512 50.80534,13.7146829 38.008418,13.7146829 Z"/>
      <path d="M38.0075491,26.5644878 C32.2358344,26.5644878 27.5564181,31.2940976 27.5564181,37.1265366 C27.5564181,42.9589756 32.2358344,47.6881463 38.0075491,47.6881463 C43.7801327,47.6881463 48.461287,42.9589756 48.461287,37.1265366 C48.461287,31.2940976 43.7801327,26.5644878 38.0075491,26.5644878"/>
    </g>
  </g>
</svg>
